
<svg id="Layer_1" data-name="Layer 1" xmlns="http://www.w3.org/2000/svg" viewBox="0 0 283.09 87.82"><defs><style>.cls-1{fill:#7c4d9f;}.cls-2{fill:#8c57a3;}.cls-3{fill:#6a2c91;}.cls-4{fill:#ac7cb7;}.cls-5{fill:#9c72b2;}.cls-6{font-size:38px;fill:#231f20;font-family:Montserrat-Medium, Montserrat;font-weight:500;letter-spacing:-0.05em;}.cls-7{fill:#40c4e0;}.cls-8{font-size:25px;fill:#623b97;font-family:Montserrat-Light, Montserrat;font-weight:300;letter-spacing:-0.04em;}</style></defs><path class="cls-1" d="M80.05,189.29a3.7,3.7,0,0,1,.07.57l1.34,26.75L69.52,202.2l6.85-31.31Z" transform="translate(-69.52 -157.27)"/><polygon class="cls-2" points="29.26 15.58 10.58 32.3 34.69 65.56 39.67 58.98 43.58 26.96 29.26 15.58"/><polygon class="cls-3" points="10.58 32.3 34.69 65.56 11.94 59.34 10.58 32.3"/><polygon class="cls-4" points="34.16 0.55 43.58 26.96 29.26 15.58 34.16 0.55"/><polygon class="cls-5" points="34.16 0.55 6.85 13.62 10.58 32.3 29.26 15.58 34.16 0.55"/><text class="cls-6" transform="translate(48.07 32.3)">SENSE<tspan class="cls-7" x="119.47" y="0">ERING</tspan></text><text class="cls-8" transform="translate(48.13 59.34)">OBSIDIAN</text></svg>
