
<svg id="Layer_1" data-name="Layer 1" xmlns="http://www.w3.org/2000/svg" viewBox="0 0 292.58 88.81"><defs><style>.cls-1{fill:#7c4d9f;}.cls-2{fill:#8c57a3;}.cls-3{fill:#6a2c91;}.cls-4{fill:#ac7cb7;}.cls-5{fill:#9c72b2;}.cls-6{font-size:38px;fill:#231f20;font-family:Montserrat-Medium, Montserrat;font-weight:500;letter-spacing:-0.05em;}.cls-7{fill:#40c4e0;}.cls-8{font-size:25px;fill:#623b97;font-family:Montserrat-Light, Montserrat;font-weight:300;letter-spacing:-0.04em;}</style></defs><path class="cls-1" d="M71.29,188.14c0,.19,0-.19,0,0l.58,27.17a.68.68,0,0,1-1.2.45L60.19,203.1a.64.64,0,0,1-.14-.58l6.85-29.7a.68.68,0,0,1,1.33,0Z" transform="translate(-60.03 -156.28)"/><path class="cls-2" d="M93.83,173.88,76,189.81a.68.68,0,0,0-.1.9l23.21,32a.68.68,0,0,0,1.09,0l4.32-5.71a.61.61,0,0,0,.13-.32l3.85-31.46a.69.69,0,0,0-.25-.62L94.7,173.85A.68.68,0,0,0,93.83,173.88Z" transform="translate(-60.03 -156.28)"/><path class="cls-3" d="M74.74,193.81l20.47,28.25a.68.68,0,0,1-.69,1.06l-19.26-4a.68.68,0,0,1-.54-.63l-1.21-24.24A.68.68,0,0,1,74.74,193.81Z" transform="translate(-60.03 -156.28)"/><path class="cls-4" d="M101.1,158.28l6.79,21.25a.68.68,0,0,1-1.06.74l-10.9-8.66a.68.68,0,0,1-.22-.74l4.1-12.59A.68.68,0,0,1,101.1,158.28Z" transform="translate(-60.03 -156.28)"/><path class="cls-5" d="M96.07,156.34l-25.4,12.17a.67.67,0,0,0-.37.74l3.4,17a.67.67,0,0,0,1.11.37l17.66-15.81a.61.61,0,0,0,.19-.29L97,157.17A.68.68,0,0,0,96.07,156.34Z" transform="translate(-60.03 -156.28)"/><text class="cls-6" transform="translate(57.55 33.29)">SENSE<tspan class="cls-7" x="119.47" y="0">ERING</tspan></text><text class="cls-8" transform="translate(57.61 60.34)">OBSIDIAN</text></svg>